<?xml version="1.0" encoding="UTF-8"?>
<svg id="Camada_2" data-name="Camada 2" xmlns="http://www.w3.org/2000/svg" viewBox="0 0 489.69 126.09" shape-rendering="geometricPrecision">
  <defs>
    <style>
      .cls-1 {
        fill: #003b73;
      }
    </style>
  </defs>
  <g id="Camada_1-2" data-name="Camada 1">
    <g>
      <path class="cls-1" d="M0,99.41l96.93,9.72L0,77.08v-22.33l107.78,40.7L0,30.26V10.45l1.79-1.07,108.87,76.35L34,0h87.88c6.27,0,9.79,3.72,9.79,11.86,0,32.57-.03,70.16-.03,103.04-.81,6.24-5.63,11.19-11.91,11.19-35.72,0-75.25-.04-107.79-.04-3.86-.25-7.61-2.18-9.78-5.39-.35-.51-2.16-2.98-2.16-4.33v-16.93Z"/>
      <path class="cls-1" d="M363.1,87.16h-10.13c.72-6.89,4.17-16.14,4.27-22.78.06-3.7-2.34-4.19-5.4-2.47-5.74,3.23-5.65,19.36-7.62,25.18l-9.33.07c-.79-.79,3.57-18.69,3.67-21.96.07-2.37.27-4.02-2.56-4.02-8.14,0-8.3,19.63-10.11,25.3l-9.79.69,5.06-33.86h8.69s0,5.05,0,5.05c4.74-5.62,15.42-8.46,18.43,0,3.44-5.53,17.14-8.34,18.41-.31,1.42,9.02-3.43,19.96-3.57,29.13Z"/>
      <path class="cls-1" d="M404.25,54.1l-4.25,33.06-8-.32-.68-4.73c-15.85,14.93-24.81-1.35-16.98-17.27,5.69-11.57,18.32-13.84,29.92-10.74ZM394.2,60.51c-9.64-.61-15.35,11.29-11.6,19.12,9.21,1.68,10.87-12.58,11.6-19.12Z"/>
      <path class="cls-1" d="M441.95,58.35c2.96-5.15,15.47-7.73,18.26-1.99,3.38,6.96-3.22,22.85-3.08,30.79h-9.4c-.74-4.76,5.07-22.59,2.97-25.51-.39-.54-.56-.43-1.16-.49-10.18-1.01-9.66,19.44-12.04,25.9l-9.3.09,5.06-33.86,8,.32.68,4.73Z"/>
      <path class="cls-1" d="M291.41,54.11l.09,3.52c2.97-.9,4.15-3.72,7.63-4.27,6-.94,11.37,1.36,12.44,7.69,2.78,16.44-8.66,28.41-25.14,26.85l-2.21,14.36-6.48.04,7.2-47.79c1.75-1.9,4.36-.89,6.46-.4ZM287.88,82.12c8.09.85,15.25-3.83,16.45-12.07.78-5.38.22-12.63-7.07-10.64-8.11,2.22-8.1,15.99-9.38,22.71Z"/>
      <path class="cls-1" d="M221.34,54.03l-7.97,48.26h-7.22s3.61-20.16,3.61-20.16c-13.21,12.64-23.32,2.67-18.28-13.53,4.29-13.78,16.63-17.35,29.86-14.57ZM214.1,59.07c-11.34-2.19-18.73,9.52-16.48,19.65,1.59,7.16,8.78,1.65,11.3-2.13,3.37-5.06,3.69-11.78,5.18-17.52Z"/>
      <path class="cls-1" d="M482.45,44.66l-.72,8.64h7.96s-1.4,7.62-1.4,7.62l-7.97.35c-.09,6.81-7.66,21.5,5.03,17.97l.76,6.73c-22.61,6.41-18.63-9.56-15.23-24.73h-5.06s1.54-7.83,1.54-7.83l4.89-.17.92-7.01c2.96-1.73,5.92-1.75,9.29-1.56Z"/>
      <path class="cls-1" d="M237.14,54.13c.89,5.38-5.87,23-2.42,26.54,3.82,3.92,9.35-2.03,11.12-5.48,2.66-5.17,3.46-18.48,4.76-20.47,1.1-1.68,5.15-1.21,6.87-.66l-5.49,33-5.37-.21-.68-4.73c-4.27,4.06-9.67,7.78-15.69,4.47-8.15-4.49.34-24.49.49-32.06.81-1.34,5.09-1.42,6.43-.4Z"/>
      <path class="cls-1" d="M164.91,74.21c1.72,10.31,9.81,8.18,17.66,6.42l1.09,5.03c-17.98,7.74-32.48-4.3-22.38-22.64,4.07-7.4,17.1-14.48,23.55-6.84,9.09,10.77-11.85,18.15-19.92,18.04ZM165.64,68.43c3.53.46,16.67-2.73,14.14-7.91-3.14-6.43-13.69,3.17-14.14,7.91Z"/>
      <polygon class="cls-1" points="424.58 53.31 418.85 86.85 409.4 87.16 413.74 61.23 410.11 61.23 411.93 53.31 424.58 53.31"/>
      <polygon class="cls-1" points="275.58 54.03 269.7 87.07 263.28 87.16 267.63 59.07 264.01 59.07 264.73 54.03 275.58 54.03"/>
      <path class="cls-1" d="M427.46,39.64l-2.14,9-9.1-.32,1.27-8.57c3.51-1.1,6.44-.76,9.98-.11Z"/>
      <polygon class="cls-1" points="277.03 40.34 275.63 47.23 268.35 47.55 269.18 40.44 277.03 40.34"/>
    </g>
  </g>
</svg>
